PathFileType	4	(X/Y/Z)	C:/Users/beibeiliu/ov580/test_trc/User1\sequence.14_training_dense_left.trc
DataRate	CameraRate	NumFrames	NumMarkers	Units	OrigDataRate	OrigDataStartFrame	OrigNumFrames
120	120	22	19	mm	120	201	267
Frame#	Time	ThumbCMC			ThumbMCP			ThumbIP			ThumbTip			IndexMCP			IndexPIP			IndexTip			MiddleMCP			MiddlePIP			MiddleTip			RingMCP			RingPIP			RingTip			PinkyMCP			PinkyPIP			PinkyTip			BackHand1			BackHand2			BackHand3	
		X0	Y0	Z0	X1	Y1	Z1	X2	Y2	Z2	X3	Y3	Z3	X4	Y4	Z4	X5	Y5	Z5	X6	Y6	Z6	X7	Y7	Z7	X8	Y8	Z8	X9	Y9	Z9	X10	Y10	Z10	X11	Y11	Z11	X12	Y12	Z12	X13	Y13	Z13	X14	Y14	Z14	X15	Y15	Z15	X16	Y16	Z16	X17	Y17	Z17	X18	Y18	Z18	
200	1.66667	-157.117	37.5137	23.8714	-146.978	28.9504	-9.55684	-139.326	29.7814	-37.828	-143.64	32.7437	-61.9775	-148.186	89.9566	-43.4753	-144.175	79.1465	-70.3871	-149.037	47.8591	-84.736	-175.259	109.196	-38.0329	-163.454	119.583	-70.8442	-165.962	117.69	-101.73	-194.631	105.973	-33.1276	-191.789	121.751	-60.0863	-185.067	124.053	-89.9506	-222.407	91.1473	-29.6136	-222.972	103.37	-51.0439	-219.734	113.887	-77.8841	-209.362	81.6688	13.359	-218.383	69.4423	42.2691	-180.399	73.3561	34.3347	
201	1.675	-154.883	37.1942	22.9721	-143.704	24.3025	-8.47657	-139.801	28.9258	-35.4312	-142.057	30.3163	-62.2579	-149.073	88.7251	-41.4181	-147.134	74.0202	-73.3572	-152.552	46.2109	-80.3133	-169.452	110.932	-38.7925	-163.31	118.884	-72.3731	-162.96	117.233	-102.247	-197.083	111.138	-36.3391	-191.763	123.835	-64.7636	-186.525	125.611	-93.1933	-223.358	94.3556	-30.7541	-223.591	107.011	-54.4622	-218.043	113.684	-76.904	-207.192	85.6555	10.6078	-214.327	69.0099	43.8263	-177.66	73.7066	34.9682	
202	1.68333	-155.634	34.6918	25.2833	-147.488	30.6085	-11.446	-140.96	31.5157	-37.9671	-140.858	29.98	-65.0329	-145.602	88.1689	-39.5854	-144.407	74.8471	-73.3485	-155.389	45.7775	-79.9628	-167.82	110.094	-37.8753	-159.577	119.501	-72.2463	-163.851	116.4	-101.992	-191.004	110.298	-35.3088	-186.702	123.348	-60.4587	-183.863	124.637	-89.2353	-220.452	96.7828	-33.2642	-221.364	106.77	-50.3095	-216.502	116.371	-76.2221	-203.526	85.3833	10.5557	-211.513	72.212	42.7302	-175.545	74.7414	29.6885	
203	1.69167	-153.214	37.2449	22.2426	-143.518	28.7783	-13.7492	-138.31	31.5299	-40.9211	-143.029	34.2136	-63.9364	-147.274	89.3765	-41.7057	-143.795	77.4842	-71.7671	-156.027	45.9823	-80.9226	-168.265	110.198	-38.6386	-159.479	118.727	-70.8647	-158.182	114.497	-102.338	-194.648	110.871	-36.2135	-185.635	124.517	-66.2628	-185.207	127.044	-93.8098	-219.964	94.7987	-29.6994	-219.359	108.246	-53.2404	-213.55	115.674	-74.7043	-205.919	87.0832	10.1602	-215.9	72.8742	42.8786	-171.978	73.9265	30.3835	
204	1.7	-156.196	39.0768	22.0528	-143.892	30.4607	-12.8034	-141.805	32.9503	-37.4211	-142.704	37.2683	-67.2512	-142.657	88.5465	-45.3827	-148.922	75.7677	-74.1569	-157.027	43.5034	-81.0645	-169.775	112.253	-40.4056	-162.28	119.772	-69.3345	-163.294	115.957	-103.122	-190.91	111.227	-36.3481	-185.856	125.03	-66.7946	-185.353	126.657	-90.362	-219.853	96.5629	-29.7784	-219.638	108.539	-52.3302	-216.148	117.742	-76.1661	-201.793	86.8584	12.5819	-210.11	72.6911	42.2252	-173.308	75.1787	31.9738	
205	1.70833	-152.119	37.9759	21.0317	-145.05	29.1081	-10.9973	-140.613	37.0998	-41.323	-140.046	36.8214	-66.6913	-145.379	89.7387	-41.5363	-144.167	75.7747	-74.0254	-157.14	46.3931	-81.7538	-166.328	112.465	-40.1744	-163.881	120.769	-71.1479	-162.254	116.752	-105.372	-193.644	115.212	-38.7459	-188.091	126.972	-66.5435	-181.798	127.23	-89.3459	-217.534	100.568	-32.931	-219.737	109.19	-52.7269	-212.198	118.947	-74.1131	-201.697	89.1741	13.4319	-214.652	73.6754	41.6186	-174.852	75.7068	31.2499	
206	1.71667	-154.36	40.6116	19.7998	-146.104	32.0808	-12.6302	-142.143	38.2172	-40.3111	-139.762	40.2096	-69.4607	-148.36	92.3953	-43.3546	-146.05	76.2195	-75.0934	-155.926	46.782	-81.8204	-166.911	114.296	-41.9806	-165.698	122.385	-72.4916	-161.107	118.598	-103.402	-195.212	114.5	-36.3956	-187.345	128.095	-64.5522	-185.811	129.065	-93.7693	-220.371	97.7335	-30.1497	-219.614	110.389	-53.3586	-212.266	121.177	-78.8295	-202.017	89.9523	12.8445	-215.227	74.0197	43.3756	-172.421	76.7834	28.8708	
207	1.725	-156.358	41.587	21.8418	-146.284	32.6648	-12.5153	-139.685	39.4467	-41.0793	-138.26	38.8784	-66.9554	-146.329	93.7223	-44.6907	-145.323	80.4596	-72.9655	-155.658	51.4624	-81.6793	-169.678	116.71	-42.3811	-165.205	124.743	-70.9403	-163.354	122.818	-104.761	-191.2	115.86	-37.0195	-191.663	129.603	-63.4598	-184.783	130.33	-89.9846	-224.284	101.23	-32.4449	-224.169	113.238	-53.0429	-218.516	121.035	-79.4916	-203.708	89.4696	12.7508	-213.805	77.4817	41.256	-176.059	76.5372	31.8576	
208	1.73333	-157.589	42.1491	23.4832	-148.15	37.1658	-11.6141	-138.983	39.2491	-40.0996	-139.829	40.838	-68.484	-150.259	96.6521	-43.936	-144.524	83.7827	-74.0823	-154.671	55.8773	-84.4057	-173.311	117.539	-40.0801	-165.903	125.507	-71.4285	-165.483	124.428	-107.048	-198.971	116.962	-36.2168	-188.675	130.372	-66.0732	-186.475	132.315	-93.5935	-221.393	101.649	-32.0953	-222.81	113.167	-56.0255	-218.396	121.046	-75.5843	-207.456	88.3633	13.1201	-217.937	75.9915	41.0863	-180.098	79.2907	30.5904	
209	1.74167	-159.258	45.9815	23.9085	-147.741	36.8358	-7.80531	-139.662	42.7926	-39.9254	-139.756	41.7915	-63.7684	-152.111	99.7966	-39.5801	-149.211	90.5366	-72.5509	-155.968	62.346	-88.6116	-179.055	119.656	-41.0441	-171.113	128.943	-73.0992	-164.228	126.686	-104.687	-199.446	116.413	-35.8379	-192.908	131.313	-63.285	-188.545	132.563	-93.9413	-227.976	100.152	-33.2649	-229.117	112.475	-55.4726	-220.101	120.541	-81.4666	-212.181	90.8374	11.7432	-216.978	78.6486	37.8473	-183.758	82.1454	32.2571	
210	1.75	-159.112	51.7766	21.9228	-148.282	40.2176	-9.24319	-142.308	44.6726	-37.7572	-138.416	43.1395	-65.201	-152.152	104.969	-42.6704	-148.446	98.3231	-74.688	-155.626	76.3063	-93.3208	-181.792	121.67	-43.5566	-175.311	129.351	-70.0331	-173.049	128.629	-108.04	-206.63	117.051	-39.5227	-198.186	129.57	-64.2247	-193.992	131.271	-93.4178	-232.921	98.8946	-32.73	-232.001	111.197	-56.6083	-222.543	119.871	-80.3512	-214.012	90.6724	13.4608	-223.598	74.6763	40.4517	-183.751	84.968	28.0271	
211	1.75833	-162.829	54.1689	21.7531	-149.854	46.6253	-12.2752	-141.252	47.4373	-40.2398	-140.883	44.7755	-62.2431	-157.557	109.44	-44.1921	-156.906	106.657	-73.486	-159.186	86.3495	-100.306	-190.792	121.668	-44.1474	-184.516	130.142	-72.1793	-183.252	129.247	-109.397	-212.893	118.462	-43.2137	-207.297	130.274	-70.1539	-202.676	129.461	-99.0488	-236.028	98.9983	-36.2298	-236.336	107.222	-55.7141	-229.283	117.146	-79.7097	-221.022	92.3104	8.9499	-226.403	77.4581	36.7073	-184.938	88.1248	28.7754	
212	1.76667	-159.09	59.5146	20.4019	-146.082	48.2032	-10.3768	-143.805	52.5848	-41.4238	-143.688	48.8181	-64.3201	-167.091	112.283	-46.1537	-163.828	112.591	-74.728	-163.208	96.7777	-101.851	-195.554	119.902	-45.2779	-198.274	128.142	-77.8551	-192.414	126.813	-110.873	-220.265	113.779	-42.9342	-216.838	125.448	-74.2274	-214.549	123.984	-98.2021	-240.425	90.4936	-33.9506	-243.653	101.989	-57.5354	-241.786	108.425	-82.1699	-226.543	88.2648	8.68841	-229.981	75.5135	39.4027	-194.481	88.2238	24.1904	
213	1.775	-166.384	63.2487	20.2029	-147.98	52.9772	-13.5928	-148.421	57.3233	-42.539	-145.671	54.2181	-70.954	-178.226	115.187	-50.7997	-173.648	115.523	-77.9154	-176.55	101.868	-102.776	-207.807	120.036	-53.5404	-207.113	125.494	-79.6789	-207.198	120.201	-112.886	-230.37	108.658	-45.934	-228.384	119.099	-76.6105	-223.746	116.27	-101.446	-245.758	86.023	-38.1077	-247.739	95.1737	-61.7053	-246.863	102.104	-88.0001	-231.861	86.1755	6.61088	-232.494	72.6938	36.6548	-195.65	88.9059	25.2937	
214	1.78333	-167.284	68.2656	18.2791	-153.316	60.283	-17.4149	-152.478	60.9553	-45.6545	-152.205	55.3972	-68.3938	-186.828	116.634	-51.4132	-186.774	115.246	-79.7926	-181.844	101.208	-107.371	-216.205	114.951	-52.059	-212.87	120.509	-86.8575	-210.618	111.812	-117.768	-239.081	100.954	-48.6254	-239.776	108.383	-77.7936	-234.187	101.694	-107.558	-252.032	78.1122	-38.8824	-255.305	83.8695	-65.4587	-252.693	88.0328	-92.3792	-234.807	85.6745	5.61484	-232.751	71.2285	36.572	-203.809	91.9151	23.6933	
215	1.79167	-171.548	72.1656	14.66	-156.405	64.2639	-17.8639	-155.792	64.1318	-46.8719	-156.314	58.2234	-69.0294	-197.155	114.787	-48.3332	-196.578	116.044	-79.691	-191.509	100.475	-104.872	-225.83	111.573	-56.8088	-222.148	114.172	-85.3895	-215.787	101.391	-120.604	-243.845	98.2379	-53.2503	-247.659	98.2633	-80.9288	-238.397	92.4478	-106.918	-258.386	71.0946	-40.8604	-259.957	74.5791	-63.3164	-255.725	76.6499	-92.5895	-239.487	80.0002	5.48602	-233.907	70.9301	39.4858	-207.529	94.2213	20.7545	
216	1.8	-173.601	72.6485	17.8955	-160.82	67.2068	-20.906	-158.548	66.7497	-46.7632	-162.814	62.2633	-72.705	-202.962	115.598	-50.5324	-201.54	112.011	-84.9124	-194.083	94.6921	-105.556	-227.443	109.996	-54.4771	-225.683	109.862	-90.4954	-219.378	89.4505	-118.714	-247.465	91.8449	-49.503	-249.855	92.0769	-83.1431	-239.251	83.1135	-109.293	-258.963	68.5681	-40.1818	-262.699	68.488	-62.8138	-256.37	69.6439	-91.874	-240.167	81.1753	6.62618	-238.83	67.4604	36.6713	-211.411	91.979	21.2112	
217	1.80833	-173.685	77.8193	12.9598	-163.349	70.1277	-21.9834	-162.979	68.5692	-46.4891	-168.088	64.6242	-72.0042	-205.32	114.627	-54.3518	-204.38	108.042	-82.7993	-190.345	85.4296	-102.368	-231.679	108.247	-61.0292	-225.84	103.737	-91.0409	-214.536	80.4588	-115.92	-249.872	89.8397	-54.9838	-250.858	86.1998	-84.2517	-234.808	74.2537	-110.405	-260.276	63.9432	-38.7088	-266.45	62.3399	-64.1856	-254.816	61.7821	-93.2351	-243.399	80.7336	6.45802	-239.099	66.2311	37.8097	-214.87	92.5254	20.9822	
218	1.81667	-177.407	77.838	12.9155	-165.354	70.1101	-19.9065	-167.386	71.566	-48.8539	-170.152	65.8237	-74.6051	-208.084	110.622	-54.8892	-203.859	100.321	-83.6859	-186.704	75.0388	-97.9064	-233.24	103.018	-62.8605	-224.552	93.5611	-91.1866	-205.682	65.597	-110.107	-251.271	84.6934	-54.4564	-245.176	80.8115	-88.5674	-232.385	64.1479	-106.224	-262.992	60.0106	-38.4082	-262.241	62.1831	-67.5255	-252.393	59.126	-94.748	-245.772	78.3302	6.09221	-243.697	66.4975	36.8031	-218.228	92.3594	23.4494	
219	1.825	-179.981	78.0857	13.1054	-165.946	71.9253	-21.2822	-170.191	74.2784	-53.0428	-172.67	66.3086	-73.5879	-209.06	109.899	-56.2118	-203.646	95.8845	-85.1041	-182.873	67.4918	-94.5236	-232.209	98.7085	-62.5655	-223.073	85.555	-92.2907	-202.209	56.3981	-103.479	-251.074	82.2116	-61.081	-242.739	76.513	-87.537	-225.781	55.8648	-106.563	-261.023	61.5338	-41.6559	-265.376	57.9632	-67.1285	-250.67	57.089	-92.0758	-247.657	76.101	3.38644	-243.575	68.1513	36.1494	-220.855	92.5915	19.0912	
220	1.83333	-178.995	79.1977	13.3761	-167.425	73.2234	-22.0503	-167.799	73.7051	-51.4143	-176.631	68.1001	-75.9582	-210.724	108.261	-57.6293	-201.128	93.9023	-86.5388	-185.281	69.9417	-94.8291	-230.533	98.5374	-62.3536	-217.804	83.4995	-92.7394	-195.358	51.8222	-98.3317	-251.645	81.3607	-62.4051	-243.502	70.4464	-88.7224	-223.785	52.3988	-102.263	-266.557	60.1236	-45.5576	-265.915	58.892	-68.2838	-247.761	55.7403	-94.1258	-251.177	75.2846	1.50567	-242.179	68.1542	32.8716	-219.734	94.765	18.1979	
221	1.84167	-178.12	79.9523	12.9064	-168.08	74.235	-25.2364	-172.106	74.7608	-55.2212	-177.734	68.5451	-78.9762	-212.46	108.415	-57.4122	-204.547	95.6444	-85.5333	-186.958	68.3863	-94.7193	-230.939	99.3629	-64.7151	-219.358	79.1777	-92.7097	-196.224	47.7695	-94.5556	-249.859	82.936	-60.7906	-241.576	69.4857	-89.4148	-221.994	47.1559	-101.899	-264.725	63.4761	-45.2446	-266.43	58.5732	-69.3812	-251.059	52.194	-95.0907	-249.245	78.122	1.00807	-245.623	66.0681	38.2758	-218.967	96.705	17.6322	
